<svg id="Layer_1" data-name="Layer 1" xmlns="http://www.w3.org/2000/svg" viewBox="0 0 805 182"><path d="M19,91.51a72.69,72.69,0,0,1,124.1-51.4c1.4,1.4,2.7,2.8,4,4.3l-3.4,25.8c0,.4-.2,1.3-2,1.1H38.5c-.4,0-1.4,0-1.4-2.1s1.3-2.1,1.4-2.1H81.4c4.6,0,5.3.2,5.2,1.9h8.1c.1-2.7-.6-5.5-2.1-7.1-2.8-3-7.1-3-10.8-3H38.5c-4.7,0-9.5,3.9-9.5,10.3,0,6.7,4.8,10.2,9.5,10.2h103c6,.2,9.7-3.8,10.2-8.2l4-30.1a86.69,86.69,0,0,0-6.4-7.2A81.47,81.47,0,0,0,32.2,147.21c.6.7,1.3,1.3,1.9,1.9a80.94,80.94,0,0,0,36.7,21.2l1.2-8.8a72.81,72.81,0,0,1-53-70Z"/><path d="M158.1,44.31l-1.8,13.8a72.68,72.68,0,0,1-64.6,106.1c-3,0-6-.2-9-.5l11.1-81.9H85.6l-10.8,80.4h0l-1.2,8.7a85.07,85.07,0,0,0,18.1,2,81.38,81.38,0,0,0,66.4-128.6Z"/><path d="M211.4,81h-7.1a3.89,3.89,0,0,1-4-3.7v-.2a6.26,6.26,0,0,1,6.1-6.1h7l2.4-12.1a6.83,6.83,0,0,1,6.5-5.4,4.31,4.31,0,0,1,4.5,4,3.18,3.18,0,0,1-.2,1.4L224.2,71H242a3.89,3.89,0,0,1,4,3.7v.2a6.24,6.24,0,0,1-6,6.1H222.2l-5.8,30.5c-2.4,12.5,2.6,19.3,13.9,19.3a3.89,3.89,0,0,1,4,3.7v.2a6.35,6.35,0,0,1-6.1,6.2c-17.2,0-26.1-11.3-22.6-29.4Z"/><path d="M264.5,49.71a7,7,0,0,1,6.3-5.4,4.36,4.36,0,0,1,4.6,4.1,4.87,4.87,0,0,1-.1,1.2l-5.5,28.3a30.36,30.36,0,0,1,21.6-8.3c15.9,0,26,12.3,22.2,31.8l-6.6,33.9a6.7,6.7,0,0,1-6.3,5.5,4.46,4.46,0,0,1-4.6-4.3,4.87,4.87,0,0,1,.1-1.2l6.9-34.8c2.7-13.9-4.3-20.9-14.8-20.9-10.2,0-20.1,6.9-22.8,20.9l-6.9,34.8a6.7,6.7,0,0,1-6.3,5.5,4.46,4.46,0,0,1-4.6-4.3,4.87,4.87,0,0,1,.1-1.2Z"/><path d="M329.6,98.91c3.6-18.9,16.7-29.2,33.8-29.2,3.1,0,4.5,2,4.5,3.9a6.33,6.33,0,0,1-6.1,6.1c-10.6,0-19,6.7-21.4,19.3l-7.1,36.4a6.7,6.7,0,0,1-6.3,5.5,4.46,4.46,0,0,1-4.6-4.3,4.87,4.87,0,0,1,.1-1.2Z"/><path d="M369.5,112.21c0-21.7,18.6-42.6,42.1-42.6,10.2,0,17.9,4.2,22.5,8.9a5.29,5.29,0,0,1,1.6,3.8,6.69,6.69,0,0,1-2.2,4.5l-29.4,28.4a7.06,7.06,0,0,1-4.6,1.9,4.19,4.19,0,0,1-4.4-4.1v-.2a6.65,6.65,0,0,1,1.9-4.7l25.2-24.3a16.94,16.94,0,0,0-11.6-4.2c-16.7,0-30.2,15.5-30.2,31.1,0,11.6,8.5,20.4,20.5,20.4a29.58,29.58,0,0,0,20-8.5,7.66,7.66,0,0,1,4.7-2,4.16,4.16,0,0,1,4.4,4v.3a6.5,6.5,0,0,1-2.4,5,40.94,40.94,0,0,1-27.8,11.2C382.2,141.11,369.5,128.61,369.5,112.21Z"/><path d="M497.9,131.11a38.94,38.94,0,0,1-26,10c-17.4,0-29.8-12.5-29.8-28.8,0-21.7,18.2-42.6,41.2-42.6,10.4,0,19,4.6,24.3,11.6l1.2-5.9a6.71,6.71,0,0,1,6.3-5.4,4.46,4.46,0,0,1,4.6,4.3,3.75,3.75,0,0,1-.1,1.1l-11.7,60a6.7,6.7,0,0,1-6.3,5.5c-3.1,0-5-2.4-4.5-5.5Zm5.5-31.2c0-11.6-8.4-20.2-20.2-20.2-16.7,0-30.2,15.5-30.2,31.2,0,11.6,8.5,20.4,20.5,20.4C490.1,131.11,503.4,115.61,503.4,99.91Z"/><path d="M581.3,131.11a38.94,38.94,0,0,1-26,10c-17.4,0-29.8-12.5-29.8-28.8,0-21.7,18.2-42.6,41.2-42.6,10.4,0,19,4.6,24.3,11.6l6.2-31.6a6.71,6.71,0,0,1,6.3-5.4,4.38,4.38,0,0,1,4.5,4.3,4.1,4.1,0,0,1-.1,1.1l-16.7,85.6a6.7,6.7,0,0,1-6.3,5.5c-3.1,0-5-2.4-4.5-5.5Zm5.5-31.2c0-11.6-8.4-20.2-20.2-20.2-16.7,0-30.2,15.5-30.2,31.1,0,11.6,8.5,20.4,20.5,20.4C573.5,131.11,586.8,115.61,586.8,99.91Z"/><path d="M620.8,49.71a7,7,0,0,1,6.3-5.4,4.28,4.28,0,0,1,4.6,4,6.15,6.15,0,0,1-.1,1.4l-16.7,85.6a6.7,6.7,0,0,1-6.3,5.5,4.46,4.46,0,0,1-4.6-4.3,4.87,4.87,0,0,1,.1-1.2Z"/><path d="M642.1,75.31a6.82,6.82,0,0,1,6.3-5.4,4.28,4.28,0,0,1,4.6,4,6.6,6.6,0,0,1-.1,1.4l-11.7,60a6.7,6.7,0,0,1-6.3,5.5,4.48,4.48,0,0,1-4.6-4.4,4.87,4.87,0,0,1,.1-1.2Zm2.6-19.7a8.41,8.41,0,0,1,8.2-8.1,5.15,5.15,0,0,1,5.5,4.8v.5a8.49,8.49,0,0,1-8.1,8.2,5.38,5.38,0,0,1-5.7-5.1A.37.37,0,0,0,644.7,55.61Z"/><path d="M663.5,100.11c3.8-19.6,18.5-30.5,35.1-30.5s27.6,12.3,23.9,31.8l-6.6,33.8a6.62,6.62,0,0,1-6.3,5.5,4.46,4.46,0,0,1-4.6-4.3,4.87,4.87,0,0,1,.1-1.2l6.9-34.8c2.7-13.8-4.3-20.9-14.8-20.9s-20.1,7.2-22.8,20.9l-6.9,34.8a6.7,6.7,0,0,1-6.3,5.5,4.46,4.46,0,0,1-4.6-4.3,4.87,4.87,0,0,1,.1-1.2Z"/><path d="M730.8,112.21c0-21.7,18.6-42.6,42.1-42.6,10.2,0,17.9,4.2,22.5,8.9a5.29,5.29,0,0,1,1.6,3.8,6.69,6.69,0,0,1-2.2,4.5l-29.4,28.4a7.06,7.06,0,0,1-4.6,1.9,4.13,4.13,0,0,1-4.4-4.1v-.2a6.65,6.65,0,0,1,1.9-4.7l25.2-24.3a16.94,16.94,0,0,0-11.6-4.2c-16.7,0-30.2,15.5-30.2,31.1,0,11.6,8.5,20.4,20.5,20.4a29.38,29.38,0,0,0,20-8.5,7.66,7.66,0,0,1,4.7-2,4.16,4.16,0,0,1,4.4,4v.3a6.5,6.5,0,0,1-2.4,5,40.94,40.94,0,0,1-27.8,11.2C743.5,141.11,730.8,128.61,730.8,112.21Z"/></svg>